<svg id="Layer_1" data-name="Layer 1" xmlns="http://www.w3.org/2000/svg" xmlns:xlink="http://www.w3.org/1999/xlink" viewBox="0 0 384 384"><defs><style>.cls-1,.cls-2,.cls-6,.cls-7,.cls-8{fill:#fff;}.cls-1{opacity:0.12;}.cls-2{opacity:0.07;}.cls-3{fill:url(#linear-gradient);}.cls-4{opacity:0.64;fill:url(#linear-gradient-2);}.cls-5{fill:#0092cc;}.cls-10,.cls-5,.cls-9{opacity:0.7;}.cls-6{font-size:85.81px;letter-spacing:-0.05em;}.cls-6,.cls-7{font-family:ISOCPEUR;}.cls-7{font-size:63.35px;letter-spacing:0.05em;}.cls-9{fill:#efa500;}.cls-10{fill:#f29500;}</style><linearGradient id="linear-gradient" x1="-158.33" y1="31.13" x2="191.67" y2="31.13" gradientTransform="translate(158.2 143.55)" gradientUnits="userSpaceOnUse"><stop offset="0" stop-color="#29a1e2"/><stop offset="1" stop-color="#22b553"/></linearGradient><linearGradient id="linear-gradient-2" x1="34" y1="17" x2="350" y2="17" gradientUnits="userSpaceOnUse"><stop offset="0" stop-color="#29a1e2"/><stop offset="1" stop-color="#223e73"/></linearGradient></defs><path class="cls-1" d="M34.12,230.16A1685.58,1685.58,0,0,1,226,207.24c43.61-2.69,85.09-3.55,124.16-3.08v146c-146-1-162,0-316,0Z" transform="translate(0.13 0.33)"/><path class="cls-2" d="M34.12,215.16a1652.36,1652.36,0,0,1,210.22-28.8c36.76-2.64,72.07-3.94,105.78-4.2v166c-146-1-162,2-316,2Z" transform="translate(0.13 0.33)"/><rect class="cls-3" x="-0.13" y="-0.33" width="350" height="350" transform="translate(349.67 0.13) rotate(90)"/><rect class="cls-4" x="34" width="316" height="34"/><rect class="cls-5" x="34" y="34" width="350" height="350"/><text class="cls-6" transform="translate(93.95 295.56)">unatomo</text><text class="cls-7" transform="translate(225.64 339.87)">core</text><circle class="cls-8" cx="112.5" cy="109.5" r="43.5"/><path class="cls-1" d="M33.87,229.67a1686,1686,0,0,1,191.85-22.92c43.61-2.69,85.09-3.55,124.15-3.08v146c-146-1-162,0-316,0Z" transform="translate(0.13 0.33)"/><path class="cls-2" d="M34,214.67a1652.36,1652.36,0,0,1,210.22-28.8c36.76-2.64,72.08-3.94,105.78-4.2V350c-144,0-162-.33-316-.33Z" transform="translate(0.13 0.33)"/><rect class="cls-9" y="317" width="67" height="67"/><rect class="cls-5" x="33.87" y="316.67" width="33" height="33" transform="translate(100.87 666.67) rotate(180)"/><rect class="cls-10" x="33.87" y="349.67" width="33" height="34" transform="translate(100.87 733.67) rotate(180)"/><circle class="cls-8" cx="112.63" cy="107.83" r="54.5"/></svg>