<svg id="Layer_1" data-name="Layer 1" xmlns="http://www.w3.org/2000/svg" xmlns:xlink="http://www.w3.org/1999/xlink" viewBox="0 0 384 384"><defs><style>.cls-1{fill:url(#linear-gradient);}.cls-2{fill:#0092cc;}.cls-2,.cls-6{opacity:0.7;}.cls-3,.cls-4,.cls-5{fill:#fff;}.cls-4{opacity:0.12;}.cls-5{opacity:0.07;}.cls-6{fill:#efa500;}.cls-7{opacity:0.64;fill:url(#linear-gradient-2);}</style><linearGradient id="linear-gradient" x1="-157.84" y1="30.88" x2="192.16" y2="30.88" gradientTransform="translate(157.95 144.28)" gradientUnits="userSpaceOnUse"><stop offset="0" stop-color="#29a1e2"/><stop offset="1" stop-color="#22b573"/></linearGradient><linearGradient id="linear-gradient-2" x1="34" y1="17" x2="350" y2="17" gradientUnits="userSpaceOnUse"><stop offset="0" stop-color="#29a1e2"/><stop offset="1" stop-color="#223e73"/></linearGradient></defs><rect class="cls-1" x="0.12" y="0.16" width="350" height="350" transform="translate(350.16 -0.12) rotate(90)"/><rect class="cls-2" x="34" y="34" width="350" height="350"/><circle class="cls-3" cx="114.5" cy="111.5" r="54.5"/><path class="cls-4" d="M34.12,230.16A1685.58,1685.58,0,0,1,226,207.24c43.61-2.69,85.09-3.55,124.16-3.08v146c-146-1-162,0-316,0Z" transform="translate(-0.12 -0.16)"/><path class="cls-5" d="M34.12,215.16a1652.36,1652.36,0,0,1,210.22-28.8c36.76-2.64,72.07-3.94,105.78-4.2v166c-146-1-162,2-316,2Z" transform="translate(-0.12 -0.16)"/><rect class="cls-6" y="317" width="67" height="67"/><rect class="cls-2" x="34.12" y="317.16" width="33" height="33" transform="translate(101.12 667.16) rotate(180)"/><rect class="cls-7" x="34" width="316" height="34"/></svg>