<?xml version="1.0" standalone="no"?>
<!DOCTYPE svg PUBLIC "-//W3C//DTD SVG 20010904//EN"
 "http://www.w3.org/TR/2001/REC-SVG-20010904/DTD/svg10.dtd">
<svg version="1.0" xmlns="http://www.w3.org/2000/svg"
 width="1601.000000pt" height="1601.000000pt" viewBox="0 0 1601.000000 1601.000000"
 preserveAspectRatio="xMidYMid meet">

<g transform="translate(0.000000,1601.000000) scale(0.100000,-0.100000)"
fill="#000000" stroke="none">
<path d="M4560 15990 c0 -9 70 -14 207 -15 24 0 38 -4 33 -9 -4 -4 -27 -7 -49
-4 -23 2 -41 1 -41 -3 0 -9 -57 -6 -66 4 -4 4 -26 6 -48 5 l-41 -1 45 -7 45
-7 -42 -1 c-34 -2 -43 -6 -43 -19 0 -15 2 -16 10 -3 9 13 10 13 10 0 0 -13 1
-13 10 0 9 13 10 13 10 0 0 -13 1 -13 10 0 5 8 10 10 10 4 0 -6 7 -11 15 -11
8 0 15 4 15 9 0 4 5 8 11 8 5 0 8 -4 5 -8 -3 -5 1 -9 9 -9 8 0 15 4 15 9 0 4
5 8 11 8 5 0 8 -4 5 -8 -3 -5 12 -8 32 -7 47 2 62 -3 62 -22 0 -8 -4 -11 -10
-8 -5 3 -10 -1 -10 -9 0 -9 8 -16 17 -16 28 0 -2 -23 -34 -26 -15 -1 -31 -2
-35 -3 -5 -1 -8 -71 -8 -156 0 -97 -4 -155 -10 -155 -6 0 -10 -33 -10 -80 0
-47 4 -80 10 -80 6 0 10 -33 10 -80 0 -47 -4 -80 -10 -80 -6 0 -10 -59 -10
-156 0 -121 3 -159 14 -170 18 -17 82 -19 90 -1 2 6 4 -44 3 -113 l-2 -125
-45 -6 -45 -6 46 -1 c31 -2 49 -7 53 -17 3 -8 0 -16 -7 -17 -31 -5 -1819 -15
-3099 -17 l-288 -1 0 -3765 c0 -2071 3 -3765 6 -3765 3 0 33 7 67 15 57 14
244 50 772 150 105 20 217 43 251 51 33 7 70 14 81 14 18 0 152 24 328 60 28
5 120 21 205 35 376 62 516 87 530 92 8 4 18 5 22 5 4 -1 29 2 55 7 27 5 93
16 148 25 55 9 154 25 220 36 66 12 136 23 155 26 19 3 57 9 83 14 26 6 63 10
82 10 19 0 37 5 40 10 4 6 10 8 14 5 5 -2 50 2 102 11 115 18 540 82 629 94
36 5 97 14 135 20 39 6 133 20 210 30 77 11 192 26 255 35 190 27 548 73 850
110 157 19 359 44 450 55 91 11 210 25 265 30 55 6 159 17 230 26 191 22 183
21 410 44 116 11 246 25 290 30 44 5 107 11 140 13 33 3 134 12 225 21 300 28
718 65 807 71 49 3 104 8 123 10 38 5 330 28 580 45 85 6 179 13 209 15 30 3
99 8 155 11 56 3 243 14 416 24 599 37 1233 69 1398 71 61 1 112 4 112 8 0 4
19 5 41 3 23 -3 164 1 313 7 149 6 431 13 626 17 195 3 361 7 369 10 7 2 184
4 392 5 l379 0 0 3790 0 3789 -5015 0 c-3224 0 -5015 -4 -5015 -10z m-80
-2184 c0 -2 -7 -7 -16 -10 -8 -3 -12 -2 -9 4 6 10 25 14 25 6z m450 -28 c0 -5
15 -8 33 -8 17 0 70 -7 116 -15 46 -8 88 -12 93 -8 6 3 13 1 17 -4 3 -5 46
-20 95 -32 48 -12 136 -40 195 -63 58 -22 116 -41 128 -42 11 0 19 -4 17 -8
-4 -7 35 -23 49 -20 4 1 7 -2 7 -6 0 -13 50 -33 62 -26 6 4 8 3 5 -3 -4 -6 5
-15 19 -22 31 -14 37 -14 28 1 -4 7 -3 8 5 4 6 -4 9 -11 7 -15 -7 -10 102 -73
114 -66 6 4 9 1 8 -6 -2 -8 7 -14 20 -15 12 -1 26 -5 30 -9 4 -5 -2 -5 -13 -2
-19 7 -19 7 -1 -8 10 -8 23 -12 29 -8 6 3 7 1 4 -4 -4 -6 5 -19 19 -28 22 -14
28 -15 36 -4 8 11 9 10 4 -3 -3 -12 2 -22 17 -29 12 -7 27 -19 33 -27 6 -8 16
-12 23 -8 6 4 10 3 9 -2 -3 -9 184 -192 197 -192 4 0 2 7 -5 15 -11 13 -10 14
1 10 8 -4 25 -21 38 -38 l25 -32 -27 24 c-38 34 -34 11 4 -25 26 -24 118 -134
154 -182 6 -8 21 -26 35 -40 13 -15 22 -27 20 -27 -2 0 5 -15 15 -32 14 -24
22 -29 28 -20 6 8 7 6 3 -6 -5 -16 20 -65 44 -87 3 -3 6 -12 8 -20 5 -21 23
-41 32 -35 5 3 7 -3 5 -12 -3 -23 53 -136 64 -129 4 3 6 -6 3 -19 -2 -15 0
-25 7 -25 6 0 10 -3 9 -7 -3 -16 15 -63 22 -58 5 3 6 -4 3 -15 -3 -12 0 -20 8
-20 7 0 10 -3 7 -6 -4 -3 7 -44 23 -91 30 -90 71 -261 90 -378 12 -75 28 -527
18 -535 -6 -6 -33 -200 -33 -247 -1 -17 -4 -29 -7 -28 -5 4 -33 -112 -34 -140
0 -5 -3 -14 -6 -20 -18 -30 -59 -176 -53 -186 4 -7 3 -9 -3 -6 -9 6 -53 -81
-59 -115 -1 -5 -3 -11 -4 -15 -1 -5 -2 -11 -1 -15 0 -5 -4 -8 -10 -8 -6 0 -8
-7 -5 -16 3 -8 2 -13 -3 -10 -9 6 -38 -52 -33 -66 1 -5 -2 -8 -7 -8 -5 0 -25
-28 -44 -62 -20 -35 -63 -103 -96 -152 -62 -90 -71 -107 -48 -87 10 8 14 7 14
-3 0 -7 -10 -13 -21 -12 -13 1 -20 -4 -18 -12 1 -8 -2 -11 -7 -7 -10 6 -37
-33 -33 -47 1 -5 -4 -7 -11 -5 -6 1 -11 -5 -9 -13 2 -8 1 -12 -3 -8 -8 8 -130
-119 -130 -136 0 -6 9 -9 20 -8 11 2 18 2 15 0 -3 -2 -13 -10 -23 -18 -14 -10
-17 -11 -15 0 7 30 -22 18 -60 -25 -22 -25 -44 -45 -49 -45 -15 0 -54 -46 -46
-54 4 -4 1 -5 -7 -1 -9 3 -33 -11 -57 -34 -24 -21 -43 -37 -43 -35 0 1 -44
-26 -97 -62 -240 -160 -626 -309 -876 -339 -51 -7 -56 -9 -45 -24 11 -14 11
-14 -2 -4 -11 8 -58 10 -168 6 -129 -5 -152 -8 -153 -22 -1 -13 -2 -13 -6 2
-4 14 -17 17 -91 17 -48 0 -127 5 -176 10 -66 8 -92 7 -102 -1 -12 -10 -13 -9
-8 5 5 12 0 16 -22 17 -43 2 -62 6 -149 30 -44 12 -87 23 -95 24 -8 1 -22 5
-30 8 -74 30 -125 45 -132 41 -4 -3 -8 -1 -8 4 0 6 -14 15 -31 21 -40 14 -42
14 -34 -1 4 -7 0 -6 -7 3 -12 15 -129 79 -143 79 -4 0 -3 -5 1 -12 4 -7 3 -8
-5 -4 -6 4 -9 11 -7 15 7 11 -63 43 -76 35 -6 -4 -8 -3 -5 2 3 6 -3 16 -15 23
-16 10 -19 10 -13 -1 3 -7 1 -6 -7 2 -17 20 -78 63 -78 55 0 -3 -12 6 -27 20
-15 14 -31 25 -36 25 -4 0 -15 6 -23 13 -27 22 -39 32 -89 71 -28 22 -69 57
-93 79 -37 33 -46 37 -60 26 -14 -11 -15 -11 -5 1 10 11 1 26 -50 79 -34 36
-66 64 -72 62 -5 -1 -7 0 -3 4 3 4 -28 48 -70 99 -42 51 -104 133 -136 183
-55 84 -61 90 -83 82 -16 -6 -22 -5 -18 1 3 6 13 10 21 10 8 0 14 5 14 10 0 6
-4 10 -10 10 -5 0 -9 3 -9 8 3 18 -2 30 -23 52 -13 14 -21 25 -18 25 3 0 -4
20 -14 43 -10 23 -22 39 -26 37 -5 -3 -6 4 -3 15 3 12 0 20 -8 20 -7 0 -10 3
-7 6 4 3 -4 29 -16 57 -13 29 -36 90 -51 137 -15 47 -30 90 -34 95 -3 6 -6 15
-7 22 -1 6 -11 51 -23 100 -11 48 -27 138 -36 198 -18 127 -33 412 -24 453 14
58 19 163 7 156 -6 -4 -8 -3 -4 4 3 5 3 12 -1 15 -5 2 -3 2 4 1 12 -3 15 7 33
116 15 88 63 267 99 369 17 46 28 89 24 94 -3 6 -2 7 4 4 12 -7 36 40 28 54
-4 5 -1 9 6 9 7 0 10 3 6 6 -3 4 1 13 9 21 8 9 13 22 10 29 -3 7 1 17 8 21 19
11 57 89 48 98 -4 5 -1 5 6 1 6 -4 12 -3 12 2 0 4 34 59 75 121 41 62 72 118
68 124 -3 5 -1 7 5 3 13 -8 44 33 35 47 -3 6 -1 7 4 4 10 -6 49 28 47 42 0 3
10 14 23 25 19 14 21 21 12 32 -9 12 -9 13 3 9 10 -4 36 16 74 56 32 34 64 67
70 73 6 6 27 24 47 40 20 16 33 34 30 40 -3 6 -3 8 2 4 4 -4 45 21 90 56 46
36 93 69 104 76 12 6 18 16 15 22 -4 7 -3 8 4 4 20 -12 34 4 20 22 -11 15 -11
15 4 4 13 -11 20 -11 37 0 12 7 21 16 21 21 0 4 4 6 9 2 5 -3 12 -1 16 4 3 6
59 37 125 69 66 32 116 63 112 67 -4 5 -2 5 4 2 16 -9 130 39 126 54 -2 9 1 9
10 2 16 -12 183 39 171 52 -5 4 -3 5 3 2 6 -4 62 5 125 19 118 25 151 30 304
44 109 10 415 8 415 -2z m-835 -46 c-3 -3 -11 0 -18 7 -9 10 -8 11 6 5 10 -3
15 -9 12 -12z m1786 -229 c13 -16 12 -17 -3 -4 -10 7 -18 15 -18 17 0 8 8 3
21 -13z m-2331 2 c0 -2 -6 -8 -13 -14 -10 -8 -14 -7 -14 2 0 8 6 14 14 14 7 0
13 -1 13 -2z m2365 -24 c3 -5 2 -12 -3 -15 -5 -3 -9 1 -9 9 0 17 3 19 12 6z
m-2520 -77 c-19 -14 -39 -9 -30 6 3 5 13 6 22 3 12 -5 14 -3 8 7 -6 9 -4 11 5
5 10 -6 9 -11 -5 -21z m-88 -48 c0 -8 -6 -12 -15 -9 -11 5 -11 7 0 14 7 5 13
9 14 9 0 0 1 -6 1 -14z m2849 -3 c-2 -9 -9 -19 -17 -21 -11 -3 -11 -1 1 7 8 6
11 11 7 11 -5 0 -5 5 -2 10 9 15 14 12 11 -7z m-3006 -67 c0 -2 -7 -7 -16 -10
-8 -3 -12 -2 -9 4 6 10 25 14 25 6z m76 -8 c4 -7 4 -10 -1 -6 -4 4 -15 2 -24
-5 -14 -11 -14 -10 -2 6 16 20 18 21 27 5z m2970 0 c4 -7 3 -8 -4 -4 -7 4 -12
2 -12 -5 0 -7 -3 -10 -6 -6 -6 5 3 27 11 27 2 0 7 -5 11 -12z m-2996 -32 c0
-2 -7 -9 -15 -16 -13 -11 -14 -10 -9 4 5 14 24 23 24 12z m-60 -50 c0 -2 -9
-6 -20 -9 -11 -3 -18 -1 -14 4 5 9 34 13 34 5z m3140 -21 c13 -14 21 -25 18
-25 -2 0 -15 11 -28 25 -13 14 -21 25 -18 25 2 0 15 -11 28 -25z m-3226 -64
c3 -5 -2 -15 -11 -22 -12 -10 -14 -10 -9 -1 8 13 -4 16 -20 5 -5 -5 -1 0 9 10
22 20 24 20 31 8z m3402 -70 c-4 -5 -1 -11 6 -13 7 -3 5 -7 -6 -11 -10 -4 -15
-3 -11 3 3 6 0 10 -7 10 -9 0 -9 3 2 10 19 12 23 12 16 1z m-3525 -58 c-8 -15
-10 -15 -11 -2 0 17 10 32 18 25 2 -3 -1 -13 -7 -23z m3587 -38 c-3 -3 -9 2
-12 12 -6 14 -5 15 5 6 7 -7 10 -15 7 -18z m26 -21 c3 -8 2 -12 -4 -9 -6 3
-10 10 -10 16 0 14 7 11 14 -7z m-3712 -61 c-6 -2 -10 -9 -7 -14 4 -5 -1 -6
-10 -2 -13 5 -14 7 -3 14 7 5 18 8 23 8 6 0 4 -3 -3 -6z m-67 -62 c3 -5 2 -12
-3 -15 -5 -3 -9 1 -9 9 0 17 3 19 12 6z m3856 -9 c-7 -2 -18 1 -23 6 -8 8 -4
9 13 5 13 -4 18 -8 10 -11z m-3837 -20 c3 -5 -1 -9 -9 -9 -8 0 -12 4 -9 9 3 4
7 8 9 8 2 0 6 -4 9 -8z m-30 -29 c4 -11 1 -11 -14 -3 -24 13 -25 17 -5 17 8 0
16 -6 19 -14z m-263 -510 c-12 -20 -14 -14 -5 12 4 9 9 14 11 11 3 -2 0 -13
-6 -23z m4457 -238 c-3 -3 -9 2 -12 12 -6 14 -5 15 5 6 7 -7 10 -15 7 -18z
m-4521 -780 c0 -8 -4 -12 -9 -9 -4 3 -8 0 -8 -7 0 -7 -3 -9 -6 -6 -4 4 -1 13
6 22 15 19 17 19 17 0z m5 -74 c-4 -10 -7 -11 -10 -3 -2 7 -9 9 -14 6 -6 -4
-8 -3 -5 3 10 16 36 11 29 -6z m4 -53 c-9 -14 -14 -28 -11 -31 3 -4 0 -3 -6 2
-8 7 -6 16 7 34 24 31 31 27 10 -5z m-24 -110 c-7 -7 -12 -8 -12 -2 0 14 12
26 19 19 2 -3 -1 -11 -7 -17z m31 7 c-3 -9 -8 -14 -10 -11 -3 3 -2 9 2 15 9
16 15 13 8 -4z m4508 -8 c-10 -9 -11 -8 -5 6 3 10 9 15 12 12 3 -3 0 -11 -7
-18z m-31 -94 c-11 -17 -11 -17 -6 0 3 10 6 24 7 30 0 9 2 9 5 0 3 -7 0 -20
-6 -30z m-4398 -105 c-8 -8 -8 -17 -1 -32 10 -20 10 -20 -5 -2 -12 14 -13 23
-5 33 6 7 14 13 17 13 3 0 1 -5 -6 -12z m139 -345 c13 -16 12 -17 -3 -4 -10 7
-18 15 -18 17 0 8 8 3 21 -13z m13 -93 c-5 -5 -10 3 -11 18 -1 22 0 24 9 8 6
-10 6 -22 2 -26z m4025 -3 c0 -9 -2 -8 -6 1 -2 6 -10 9 -15 6 -7 -4 -8 -2 -4
5 9 13 26 5 25 -12z m-3945 -33 c3 -8 2 -12 -4 -9 -6 3 -10 10 -10 16 0 14 7
11 14 -7z m16 -28 c0 -2 -7 -7 -16 -10 -8 -3 -12 -2 -9 4 6 10 25 14 25 6z
m3870 -39 c0 -2 -9 -12 -19 -21 -14 -13 -21 -14 -27 -5 -4 7 -3 10 3 6 6 -4
16 0 23 8 12 14 20 19 20 12z m-3817 -50 c7 3 9 3 5 -2 -4 -4 0 -15 10 -23 15
-12 14 -12 -7 0 -14 8 -26 20 -27 27 -1 6 0 7 3 1 2 -5 10 -7 16 -3z m3767 9
c0 -3 -4 -8 -10 -11 -5 -3 -10 -1 -10 4 0 6 5 11 10 11 6 0 10 -2 10 -4z
m-3713 -83 c0 -8 -6 -9 -19 -2 -10 5 -18 11 -18 12 0 2 8 3 18 3 10 0 19 -6
19 -13z m-32 -13 c3 -6 -1 -7 -9 -4 -18 7 -21 14 -7 14 6 0 13 -4 16 -10z m69
-39 c-4 -3 -9 0 -11 7 -3 6 -10 9 -15 6 -7 -4 -8 -2 -4 5 6 9 11 9 22 0 8 -6
12 -15 8 -18z m3469 -176 c-3 -9 -8 -14 -10 -11 -3 3 -2 9 2 15 9 16 15 13 8
-4z m-3209 -84 c4 -5 -3 -7 -14 -4 -23 6 -26 13 -6 13 8 0 17 -4 20 -9z m3093
-7 c-3 -3 -12 -4 -19 -1 -8 3 -5 6 6 6 11 1 17 -2 13 -5z m-3020 -73 c-1 -15
-4 -17 -14 -9 -15 12 -17 22 -3 13 6 -3 10 -1 10 4 0 6 2 11 4 11 3 0 4 -9 3
-19z m2870 -16 c0 -8 -4 -12 -9 -9 -5 3 -6 10 -3 15 9 13 12 11 12 -6z m-2732
-93 c-3 -3 -11 0 -18 7 -9 10 -8 11 6 5 10 -3 15 -9 12 -12z m2435 -128 c8 -8
9 -14 4 -13 -20 3 -35 -1 -30 -10 7 -11 -20 -8 -31 3 -4 4 -3 7 2 5 6 -1 18 1
28 6 15 6 16 10 5 16 -8 5 -9 9 -2 9 6 0 17 -7 24 -16z m-2180 2 c0 -2 -8 -10
-17 -17 -16 -13 -17 -12 -4 4 13 16 21 21 21 13z m117 -62 c-3 -3 -12 -4 -19
-1 -8 3 -5 6 6 6 11 1 17 -2 13 -5z m28 -24 c3 -6 -1 -7 -9 -4 -18 7 -21 14
-7 14 6 0 13 -4 16 -10z m1888 -5 c-3 -9 -8 -14 -10 -11 -3 3 -2 9 2 15 9 16
15 13 8 -4z m-252 -72 c12 -16 12 -17 -2 -6 -9 7 -20 9 -24 5 -5 -4 -5 -1 -1
6 9 16 11 15 27 -5z m-251 -63 c-8 -5 -19 -10 -25 -10 -5 0 -3 5 5 10 8 5 20
10 25 10 6 0 3 -5 -5 -10z m697 -1436 c-3 -3 -12 -4 -19 -1 -8 3 -5 6 6 6 11
1 17 -2 13 -5z"/>
<path d="M4320 15984 c37 -8 88 -9 84 -2 -3 4 -26 7 -52 7 -26 -1 -40 -3 -32
-5z"/>
<path d="M4453 15973 c9 -2 23 -2 30 0 6 3 -1 5 -18 5 -16 0 -22 -2 -12 -5z"/>
<path d="M4423 15933 c15 -2 37 -2 50 0 12 2 0 4 -28 4 -27 0 -38 -2 -22 -4z"/>
<path d="M4562 15880 c0 -14 2 -19 5 -12 2 6 2 18 0 25 -3 6 -5 1 -5 -13z"/>
<path d="M4582 15880 c0 -14 2 -19 5 -12 2 6 2 18 0 25 -3 6 -5 1 -5 -13z"/>
<path d="M4602 15880 c0 -14 2 -19 5 -12 2 6 2 18 0 25 -3 6 -5 1 -5 -13z"/>
<path d="M4622 15880 c0 -14 2 -19 5 -12 2 6 2 18 0 25 -3 6 -5 1 -5 -13z"/>
<path d="M4641 15884 c0 -11 3 -14 6 -6 3 7 2 16 -1 19 -3 4 -6 -2 -5 -13z"/>
<path d="M4661 15884 c0 -11 3 -14 6 -6 3 7 2 16 -1 19 -3 4 -6 -2 -5 -13z"/>
<path d="M4681 15884 c0 -11 3 -14 6 -6 3 7 2 16 -1 19 -3 4 -6 -2 -5 -13z"/>
<path d="M4701 15884 c0 -11 3 -14 6 -6 3 7 2 16 -1 19 -3 4 -6 -2 -5 -13z"/>
<path d="M4721 15884 c0 -11 3 -14 6 -6 3 7 2 16 -1 19 -3 4 -6 -2 -5 -13z"/>
<path d="M4741 15884 c0 -11 3 -14 6 -6 3 7 2 16 -1 19 -3 4 -6 -2 -5 -13z"/>
<path d="M4761 15884 c0 -11 3 -14 6 -6 3 7 2 16 -1 19 -3 4 -6 -2 -5 -13z"/>
<path d="M4738 14843 c12 -2 32 -2 45 0 12 2 2 4 -23 4 -25 0 -35 -2 -22 -4z"/>
<path d="M4555 14630 c-9 -15 7 -18 133 -24 73 -4 112 -3 112 4 0 6 -47 11
-122 12 -88 1 -110 3 -78 8 l45 7 -42 1 c-23 1 -45 -3 -48 -8z"/>
</g>
</svg>
